<?xml version="1.0" encoding="utf-8"?>
<!-- Generator: Adobe Illustrator 21.0.1, SVG Export Plug-In . SVG Version: 6.00 Build 0)  -->
<svg version="1.1" id="Layer_1" xmlns="http://www.w3.org/2000/svg" xmlns:xlink="http://www.w3.org/1999/xlink" x="0px" y="0px"
	 viewBox="0 0 157 85" style="enable-background:new 0 0 157 85;" xml:space="preserve">
<style type="text/css">
	.st0{fill:#298CB8;}
	.st1{opacity:0.27;fill:url(#SVGID_1_);}
	.st2{fill:#E67700;}
	.st3{opacity:0.27;fill:url(#SVGID_2_);}
</style>
<g>
	<path class="st0" d="M133.5,53.3c2.3,0,4.4-0.9,5.9-2.4c1.5-1.5,2.5-3.6,2.5-5.9V23.5c0-2.2-0.9-4.3-2.5-5.9
		c-1.5-1.5-3.6-2.4-5.9-2.4c-3.6,0-19.6,0-21.2,0c-2.2,0-4.3,0.9-5.9,2.4c-1.5,1.5-2.5,3.6-2.5,5.9H89.8c0-6.2,2.5-11.9,6.6-15.9
		c4.1-4.1,9.7-6.6,15.9-6.6h21.2c6.2,0,11.9,2.5,15.9,6.6c4.1,4.1,6.6,9.7,6.6,15.9v21.4c0,6.2-2.5,11.8-6.6,15.9
		c-4.1,4.1-9.7,6.6-15.9,6.6V53.3z"/>
	<linearGradient id="SVGID_1_" gradientUnits="userSpaceOnUse" x1="102.7075" y1="45.8837" x2="154.9748" y2="15.7072">
		<stop  offset="0" style="stop-color:#000000"/>
		<stop  offset="1" style="stop-color:#FFFFFF"/>
	</linearGradient>
	<path class="st1" d="M133.5,53.3c2.3,0,4.4-0.9,5.9-2.4c1.5-1.5,2.5-3.6,2.5-5.9V23.5c0-2.2-0.9-4.3-2.5-5.9
		c-1.5-1.5-3.6-2.4-5.9-2.4c-3.6,0-19.6,0-21.2,0c-2.2,0-4.3,0.9-5.9,2.4c-1.5,1.5-2.5,3.6-2.5,5.9H89.8c0-6.2,2.5-11.9,6.6-15.9
		c4.1-4.1,9.7-6.6,15.9-6.6h21.2c6.2,0,11.9,2.5,15.9,6.6c4.1,4.1,6.6,9.7,6.6,15.9v21.4c0,6.2-2.5,11.8-6.6,15.9
		c-4.1,4.1-9.7,6.6-15.9,6.6V53.3z"/>
	<path class="st2" d="M156,81c-10.1-0.3-15.1-5.1-20-9.8c-2.9-2.8-5.7-5.5-10.3-5.5c-3.9,0-7.1-3.2-7.1-7.1c0-3.9,3.2-7.1,7.1-7.1
		c10.2,0,15.2,4.7,20.1,9.5c2.8,2.7,5.6,5.4,10.2,5.8V81z"/>
	<path class="st0" d="M52.2,1h29.2c6.2,0,11.9,2.5,15.9,6.6c4.1,4.1,6.6,9.7,6.6,15.9s-2.5,11.8-6.6,15.9c-1.4,1.4-3.1,2.7-4.9,3.7
		c2,1.5,3.9,3.1,5.8,4.8c6,5.4,11.4,11.4,17,18.9H97.1c-2.7-3-5.4-5.8-8.2-8.3c-5.3-4.7-11.3-9-18.6-13.4l0,0
		c-2.1-1.3-3.5-3.6-3.4-6.2c0.1-3.9,3.3-7,7.2-7c1.1,0,2.3,0,3.5,0c1.1,0,2.2,0,3.4,0c0.2,0,0.4,0,0.5,0c2.3,0,4.4-0.9,5.9-2.4
		c1.5-1.5,2.4-3.6,2.4-5.9c0-2.3-0.9-4.4-2.4-5.9c-1.5-1.5-3.6-2.4-5.9-2.4H52.2V1z"/>
	<linearGradient id="SVGID_2_" gradientUnits="userSpaceOnUse" x1="69.9892" y1="45.4073" x2="104.7192" y2="16.2653">
		<stop  offset="0" style="stop-color:#000000"/>
		<stop  offset="1" style="stop-color:#FFFFFF"/>
	</linearGradient>
	<path class="st3" d="M52.2,1h29.2c6.2,0,11.9,2.5,15.9,6.6c4.1,4.1,6.6,9.7,6.6,15.9s-2.5,11.8-6.6,15.9c-1.4,1.4-3.1,2.7-4.9,3.7
		c2,1.5,3.9,3.1,5.8,4.8c6,5.4,11.4,11.4,17,18.9H97.1c-2.7-3-5.4-5.8-8.2-8.3c-5.3-4.7-11.3-9-18.6-13.4l0,0
		c-2.1-1.3-3.5-3.6-3.4-6.2c0.1-3.9,3.3-7,7.2-7c1.1,0,2.3,0,3.5,0c1.1,0,2.2,0,3.4,0c0.2,0,0.4,0,0.5,0c2.3,0,4.4-0.9,5.9-2.4
		c1.5-1.5,2.4-3.6,2.4-5.9c0-2.3-0.9-4.4-2.4-5.9c-1.5-1.5-3.6-2.4-5.9-2.4H52.2V1z"/>
	<path class="st0" d="M45.7,15.2h-21c-2.7,0-4.9,2.2-4.9,4.9c0,1.3,0.5,2.6,1.4,3.4c0.8,0.8,2,1.4,3.3,1.4h21.1V15.2z M52.8,66.8
		h-7.1H21.6c-5.8,0-11-2.3-14.8-6.1c-3.8-3.8-6.1-9-6.1-14.8c0-5.8,2.3-11,6.1-14.8c0.5-0.5,1-0.9,1.5-1.3c-1.7-2.8-2.6-6.1-2.6-9.7
		C5.7,9.5,14.2,1,24.7,1H60v14.2h-0.1v51.6H52.8L52.8,66.8z M24.5,39.1h-2.8c-1.9,0-3.6,0.8-4.8,2c-1.2,1.2-2,2.9-2,4.8
		c0,1.9,0.8,3.6,2,4.8c1.2,1.2,2.9,2,4.8,2h24.1V39.1h-21C24.6,39.1,24.5,39.1,24.5,39.1z"/>
	<g>
		<path class="st2" d="M8.2,75.7c1.1,0,2,0.5,2,1.9V80c0,1.4-0.9,1.9-2,1.9H6.7c-0.3,0-0.5-0.2-0.5-0.3v-5.5c0-0.2,0.2-0.3,0.5-0.3
			H8.2z M7.3,76.7V81h0.9C8.7,81,9,80.6,9,80v-2.3c0-0.7-0.3-1-0.9-1H7.3z"/>
		<path class="st2" d="M14.5,76.1c0-0.2,0.3-0.3,0.6-0.3c0.3,0,0.6,0.1,0.6,0.3v5.5c0,0.2-0.3,0.3-0.6,0.3c-0.3,0-0.6-0.1-0.6-0.3
			V76.1z"/>
		<path class="st2" d="M21.9,76.7c-0.6,0-0.9,0.3-0.9,1V80c0,0.7,0.3,1,0.9,1c0.6,0,0.9-0.3,0.9-1v-0.5h-0.7c-0.2,0-0.3-0.2-0.3-0.4
			c0-0.2,0.1-0.4,0.3-0.4h1.4c0.2,0,0.3,0.2,0.3,0.4v1c0,1.4-0.9,1.9-2,1.9c-1.1,0-2-0.5-2-1.9v-2.4c0-1.4,0.9-1.9,2-1.9
			c1.2,0,2,0.6,2,1.6c0,0.4-0.2,0.5-0.6,0.5c-0.3,0-0.5-0.1-0.6-0.3C22.8,77.1,22.6,76.7,21.9,76.7z"/>
		<path class="st2" d="M28.2,76.1c0-0.2,0.3-0.3,0.6-0.3c0.3,0,0.6,0.1,0.6,0.3v5.5c0,0.2-0.3,0.3-0.6,0.3c-0.3,0-0.6-0.1-0.6-0.3
			V76.1z"/>
		<path class="st2" d="M37.2,75.7c0.2,0,0.3,0.3,0.3,0.5c0,0.3-0.1,0.5-0.3,0.5H36v4.9c0,0.2-0.3,0.3-0.6,0.3
			c-0.3,0-0.6-0.1-0.6-0.3v-4.9h-1.2c-0.2,0-0.3-0.2-0.3-0.5c0-0.2,0.1-0.5,0.3-0.5H37.2z"/>
		<path class="st2" d="M40.6,81.5C40.6,81.4,40.6,81.4,40.6,81.5l1.7-5.4c0.1-0.3,0.4-0.4,0.7-0.4c0.3,0,0.6,0.1,0.7,0.4l1.6,5.3
			c0,0,0,0.1,0,0.1c0,0.3-0.4,0.5-0.7,0.5c-0.2,0-0.3-0.1-0.4-0.2L44,80.6H42l-0.3,1.1c0,0.2-0.2,0.2-0.4,0.2
			C41,81.9,40.6,81.7,40.6,81.5z M43.7,79.7L43,77.1l-0.7,2.6H43.7z"/>
		<path class="st2" d="M49.8,81.9c-0.2,0-0.5-0.1-0.5-0.3v-5.5c0-0.2,0.3-0.3,0.6-0.3c0.3,0,0.6,0.1,0.6,0.3V81h2.1
			c0.2,0,0.3,0.2,0.3,0.5c0,0.2-0.1,0.5-0.3,0.5H49.8z"/>
		<path class="st2" d="M64.5,80.3c0-1.3-2.7-0.9-2.7-2.9c0-1.3,1.1-1.7,2.1-1.7c0.5,0,1.6,0.1,1.6,0.7c0,0.2-0.1,0.6-0.4,0.6
			c-0.3,0-0.5-0.3-1.2-0.3c-0.6,0-1,0.2-1,0.7c0,1.1,2.7,0.7,2.7,2.9c0,1.2-0.8,1.8-2,1.8c-1.1,0-2-0.6-2-1.1c0-0.2,0.2-0.6,0.5-0.6
			c0.3,0,0.6,0.7,1.4,0.7C64,81,64.5,80.8,64.5,80.3z"/>
		<path class="st2" d="M69.7,80v-2.4c0-1.4,0.9-1.9,2-1.9c1.1,0,2,0.5,2,1.9V80c0,1.4-0.9,1.9-2,1.9C70.5,82,69.7,81.4,69.7,80z
			 M72.5,77.7c0-0.7-0.3-1-0.9-1c-0.6,0-0.9,0.3-0.9,1V80c0,0.7,0.3,1,0.9,1c0.6,0,0.9-0.3,0.9-1V77.7z"/>
		<path class="st2" d="M78.5,81.9c-0.2,0-0.5-0.1-0.5-0.3v-5.5c0-0.2,0.3-0.3,0.6-0.3c0.3,0,0.6,0.1,0.6,0.3V81h2.1
			c0.2,0,0.3,0.2,0.3,0.5c0,0.2-0.1,0.5-0.3,0.5H78.5z"/>
		<path class="st2" d="M88.3,76.1c0-0.2,0.3-0.3,0.6-0.3c0.3,0,0.6,0.1,0.6,0.3v4c0,1.4-0.9,1.9-2,1.9c-1.1,0-2-0.5-2-1.9v-4
			c0-0.2,0.3-0.3,0.6-0.3c0.3,0,0.6,0.1,0.6,0.3v4c0,0.7,0.3,1,0.9,1c0.6,0,0.9-0.3,0.9-1V76.1z"/>
		<path class="st2" d="M97.3,75.7c0.2,0,0.3,0.3,0.3,0.5c0,0.3-0.1,0.5-0.3,0.5h-1.2v4.9c0,0.2-0.3,0.3-0.6,0.3
			c-0.3,0-0.6-0.1-0.6-0.3v-4.9h-1.2c-0.2,0-0.3-0.2-0.3-0.5c0-0.2,0.1-0.5,0.3-0.5H97.3z"/>
		<path class="st2" d="M101.7,76.1c0-0.2,0.3-0.3,0.6-0.3c0.3,0,0.6,0.1,0.6,0.3v5.5c0,0.2-0.3,0.3-0.6,0.3c-0.3,0-0.6-0.1-0.6-0.3
			V76.1z"/>
		<path class="st2" d="M107.1,80v-2.4c0-1.4,0.9-1.9,2-1.9c1.1,0,2,0.5,2,1.9V80c0,1.4-0.9,1.9-2,1.9C108,82,107.1,81.4,107.1,80z
			 M110,77.7c0-0.7-0.3-1-0.9-1c-0.6,0-0.9,0.3-0.9,1V80c0,0.7,0.3,1,0.9,1c0.6,0,0.9-0.3,0.9-1V77.7z"/>
		<path class="st2" d="M118.3,81.6l-1.8-3.4v3.4c0,0.2-0.3,0.3-0.6,0.3c-0.3,0-0.6-0.1-0.6-0.3v-5.5c0-0.2,0.3-0.3,0.6-0.3
			c0.4,0,0.6,0.1,0.8,0.6l1.6,3.2v-3.4c0-0.2,0.3-0.3,0.6-0.3c0.3,0,0.6,0.1,0.6,0.3v5.5c0,0.2-0.3,0.3-0.6,0.3
			C118.7,81.9,118.5,81.8,118.3,81.6z"/>
		<path class="st2" d="M126.5,80.3c0-1.3-2.7-0.9-2.7-2.9c0-1.3,1.1-1.7,2.1-1.7c0.5,0,1.6,0.1,1.6,0.7c0,0.2-0.1,0.6-0.4,0.6
			c-0.3,0-0.5-0.3-1.2-0.3c-0.6,0-1,0.2-1,0.7c0,1.1,2.7,0.7,2.7,2.9c0,1.2-0.8,1.8-2,1.8c-1.1,0-2-0.6-2-1.1c0-0.2,0.2-0.6,0.5-0.6
			c0.3,0,0.6,0.7,1.4,0.7C126.1,81,126.5,80.8,126.5,80.3z"/>
	</g>
</g>
<g>
</g>
<g>
</g>
<g>
</g>
<g>
</g>
<g>
</g>
<g>
</g>
<g>
</g>
<g>
</g>
<g>
</g>
<g>
</g>
<g>
</g>
</svg>
