<svg id="Camada_1" data-name="Camada 1" xmlns="http://www.w3.org/2000/svg" xmlns:xlink="http://www.w3.org/1999/xlink" viewBox="0 0 733.72 453.17"><defs><clipPath id="clip-path" transform="translate(-22.45 37.9)"><path d="M440.59,21.52l-3.83,287.23,93.44,3.83,52.85-41.36L612.93,69.77S512.59-9.12,509.52-9.12,440.59,21.52,440.59,21.52Z" style="fill:none"/></clipPath><linearGradient id="Gradiente_sem_nome_54" x1="368.89" y1="164.43" x2="560.59" y2="164.43" gradientUnits="userSpaceOnUse"><stop offset="0" stop-color="#004160"/><stop offset="0.54" stop-color="#0081ab"/><stop offset="0.64" stop-color="#0085af"/></linearGradient><linearGradient id="Gradiente_sem_nome_46" x1="249.83" y1="52.33" x2="474.06" y2="276.56" gradientUnits="userSpaceOnUse"><stop offset="0" stop-color="#004160"/><stop offset="0.43" stop-color="#0085af"/></linearGradient><clipPath id="clip-path-2" transform="translate(-22.45 37.9)"><path d="M154.22,16.41,161.81,46l47.07,40.85,8.61,2.55L248,22s30.72-23.49,42.37-22,44,5.62,53.14,27.07,13.16,190.46,12.15,198.63-69.34,71-70.86,71.49-36.8,5.11-36.8,5.11H190.16c-3,0-44.54-29.11-45.56-30.64S108.16,76.67,108.16,76.67Z" style="fill:none"/></clipPath><linearGradient id="Gradiente_sem_nome_46-2" x1="123.05" y1="34.65" x2="317.42" y2="229.02" xlink:href="#Gradiente_sem_nome_46"/></defs><title>Logo SYNCY</title><g style="clip-path:url(#clip-path)"><text transform="translate(337.14 329.87) scale(0.86 1)" style="font-size:382.7091064453125px;fill:#0085af;font-family:FranklinGothic-Heavy, Franklin Gothic Heavy;font-weight:800">C</text><path d="M499.15,194.61l61.44,4.3q-4.33,46.91-29.76,72t-62.48,25q-44.6,0-72-34.39t-27.43-94.93q0-60,26-96.79T467.39,33q43.47,0,66.81,28t26.39,74.38l-62.72,3.92q0-25.61-8.42-37T469.63,90.9q-31.75,0-31.76,74.38,0,41.67,8.26,56.62t23.18,14.95Q495.94,236.85,499.15,194.61Z" transform="translate(-22.45 37.9)" style="fill:url(#Gradiente_sem_nome_54)"/></g><text transform="translate(226.81 332.97) scale(0.84 1)" style="font-size:391.979248046875px;fill:#0085af;font-family:FranklinGothic-Heavy, Franklin Gothic Heavy;font-weight:800">N</text><path d="M455.55,295.07h-54.7l-60-115.43q-11.55-22.2-23.29-53.95,5.3,25.26,5.29,42.87V295.07H268.34V33.82h63.53l51,95.69Q398.13,158,406,179.66a451.9,451.9,0,0,1-5.13-68.52V33.82h54.7Z" transform="translate(-22.45 37.9)" style="fill:url(#Gradiente_sem_nome_46)"/><g style="clip-path:url(#clip-path-2)"><text transform="translate(107.51 332.97) scale(0.77 1)" style="font-size:391.979248046875px;fill:#0085af;font-family:FranklinGothic-Heavy, Franklin Gothic Heavy;font-weight:800">Y</text><path d="M314.23,33.82,251.36,184.45V295.08h-59.9V184.45L123.88,33.82h67.47l35.21,86.12,33.75-86.12Z" transform="translate(-22.45 37.9)" style="fill:url(#Gradiente_sem_nome_46-2)"/></g><text transform="translate(3.61 326.71) scale(0.84 1)" style="font-size:391.979248046875px;fill:#0085af;font-family:FranklinGothic-Heavy, Franklin Gothic Heavy;font-weight:800">S</text><text transform="translate(524.05 332.97) scale(0.84 1)" style="font-size:391.979248046875px;fill:#ea712a;font-family:FranklinGothic-Heavy, Franklin Gothic Heavy;font-weight:800">V</text><path d="M60.92,314.09h4.85L69.64,334c.71,3.93,1.44,7.86,2.16,11.79H72c.82-3.93,1.71-7.88,2.59-11.79l5.12-19.91H84L89.11,334c.89,3.87,1.78,7.84,2.67,11.79H92c.71-4,1.38-7.9,2.09-11.79L98,314.09h4.53l-7.63,36.57H89.21l-5.58-22c-.64-2.86-1.23-5.51-1.78-8.33h-.22c-.57,2.82-1.22,5.47-1.85,8.33l-5.47,22H68.75Z" transform="translate(-22.45 37.9)" style="fill:#ea712a"/><path d="M116.46,314.09h5.3l12.48,36.57h-5l-6.43-20.42c-1.33-4.09-2.51-8.11-3.69-12.33h-.23c-1.14,4.24-2.32,8.24-3.65,12.33l-6.5,20.42H104Zm-5.92,21.72h17v3.71h-17Z" transform="translate(-22.45 37.9)" style="fill:#ea712a"/><path d="M144,318H132.88v-3.94h27V318H148.74v32.63H144Z" transform="translate(-22.45 37.9)" style="fill:#ea712a"/><path d="M163,332.41c0-11.8,7-19,16.37-19a13.81,13.81,0,0,1,10.15,4.51L187,321a10.1,10.1,0,0,0-7.5-3.45c-7,0-11.6,5.66-11.6,14.78s4.42,14.95,11.42,14.95a11.09,11.09,0,0,0,8.55-4.11l2.57,2.92a14.25,14.25,0,0,1-11.32,5.28C169.89,351.33,163,344.29,163,332.41Z" transform="translate(-22.45 37.9)" style="fill:#ea712a"/><path d="M197.24,314.09h4.69v15.32h17.16V314.09h4.7v36.57h-4.7V333.47H201.93v17.19h-4.69Z" transform="translate(-22.45 37.9)" style="fill:#ea712a"/><path d="M240.1,314.09h5l6,19.77c1.3,4.3,2.19,7.79,3.55,12.08h.23c1.37-4.29,2.27-7.78,3.55-12.08l5.91-19.77H269l-11.72,36.57h-5.44Z" transform="translate(-22.45 37.9)" style="fill:#ea712a"/><path d="M273.86,314.09h4.69v36.57h-4.69Z" transform="translate(-22.45 37.9)" style="fill:#ea712a"/><path d="M288.64,314.09h9.23c11.34,0,17.43,6.54,17.43,18.15s-6.09,18.42-17.22,18.42h-9.44Zm8.88,32.76c8.63,0,12.93-5.36,12.93-14.61s-4.3-14.33-12.93-14.33h-4.18v28.94Z" transform="translate(-22.45 37.9)" style="fill:#ea712a"/><path d="M323.21,314.09h21.27V318H327.91v11.46h14v3.94h-14v13.29H345v3.94H323.21Z" transform="translate(-22.45 37.9)" style="fill:#ea712a"/><path d="M350.69,332.24c0-11.71,6.51-18.82,15.77-18.82s15.77,7.13,15.77,18.82-6.5,19.09-15.77,19.09S350.69,344,350.69,332.24Zm26.69,0c0-9.11-4.33-14.73-10.92-14.73s-10.92,5.62-10.92,14.73,4.33,15,10.92,15S377.38,341.36,377.38,332.24Z" transform="translate(-22.45 37.9)" style="fill:#ea712a"/><path d="M387.49,345.9l2.8-3.19a14.49,14.49,0,0,0,10.18,4.53c4.85,0,7.72-2.39,7.72-5.94,0-3.74-2.68-4.93-6.16-6.44l-5.3-2.31c-3.44-1.46-7.47-4-7.47-9.42,0-5.59,4.91-9.71,11.61-9.71A15.31,15.31,0,0,1,411.74,318l-2.49,3a11.89,11.89,0,0,0-8.38-3.43c-4.13,0-6.87,2.07-6.87,5.34,0,3.53,3.21,4.84,6.1,6l5.26,2.26c4.27,1.82,7.6,4.34,7.6,9.78,0,5.78-4.81,10.39-12.57,10.39A17.72,17.72,0,0,1,387.49,345.9Z" transform="translate(-22.45 37.9)" style="fill:#ea712a"/><path d="M439.1,318H427.94v-3.94h27V318H443.8v32.63h-4.7Z" transform="translate(-22.45 37.9)" style="fill:#ea712a"/><path d="M458.06,332.24c0-11.71,6.5-18.82,15.77-18.82s15.77,7.13,15.77,18.82-6.51,19.09-15.77,19.09S458.06,344,458.06,332.24Zm26.69,0c0-9.11-4.33-14.73-10.92-14.73s-10.92,5.62-10.92,14.73,4.33,15,10.92,15S484.75,341.36,484.75,332.24Z" transform="translate(-22.45 37.9)" style="fill:#ea712a"/><path d="M495.39,332.41c0-11.8,7.15-19,16.93-19A14.38,14.38,0,0,1,523,317.93l-2.57,3a10.48,10.48,0,0,0-7.95-3.45c-7.43,0-12.21,5.66-12.21,14.78s4.39,14.95,12.26,14.95a10.06,10.06,0,0,0,6.65-2.15v-9.52h-7.81v-3.86h12.09v15.38c-2.37,2.45-6.41,4.24-11.37,4.24C502.31,351.33,495.39,344.29,495.39,332.41Z" transform="translate(-22.45 37.9)" style="fill:#ea712a"/><path d="M532.21,314.09h21.27V318H536.91v11.46h14v3.94h-14v13.29H554v3.94H532.21Z" transform="translate(-22.45 37.9)" style="fill:#ea712a"/><path d="M569.52,318H558.36v-3.94h27V318H574.21v32.63h-4.69Z" transform="translate(-22.45 37.9)" style="fill:#ea712a"/><path d="M592,314.09h4.69v15.32h17.16V314.09h4.69v36.57h-4.69V333.47H596.66v17.19H592Z" transform="translate(-22.45 37.9)" style="fill:#ea712a"/><path d="M628.62,314.09h21.26V318H633.31v11.46h14v3.94h-14v13.29h17.13v3.94H628.62Z" transform="translate(-22.45 37.9)" style="fill:#ea712a"/><path d="M658.24,314.09h11.55c7.52,0,12.91,2.67,12.91,10.29,0,7.31-5.39,10.82-12.91,10.82h-6.85v15.46h-4.7Zm10.88,17.34c5.74,0,8.9-2.31,8.9-7.05s-3.16-6.52-8.9-6.52h-6.18v13.57Zm-.25,2.5,3.68-2.41,11.26,19.14h-5.33Z" transform="translate(-22.45 37.9)" style="fill:#ea712a"/></svg>