<svg id="Camada_1" data-name="Camada 1" xmlns="http://www.w3.org/2000/svg" xmlns:xlink="http://www.w3.org/1999/xlink" viewBox="0 0 203.96 447.27"><defs><clipPath id="clip-path" transform="translate(-22.45 38.26)"><path d="M131.67,195.41l6.25,2.17,8.17,3.83,19.79,8.43,7.28,3.44,7.28,4.47L184.9,222l5.37,5.48,4.08,7.41s2.55,6.25,2.55,6.76,2.56,9.32,2.56,9.32l.63,6.64s.9,4.34,1,4.73,29.74-55.54,29.74-55.54,1.41-17.1,0-22.72S219.63,146,217,142.69s-17.75-17-21.2-18.77,1.66-16.72,1.66-16.72,19.92-5.36,20.68-5.75,9.07-11.61,8.18-17.1-8.13-14.49-10.87-29.13c-8.43-44.84-36-38.83-40.6-42.91s-40.09-.49-54.38,0S47.23,25.86,32.33,37.6s-9.7,19.15-12.25,32.94,2.91,77.11,6,81.19,5.79,16.49,7.32,17,54.13,22,54.13,22l37.07,14.81Z" style="fill:none"/></clipPath><linearGradient id="Gradiente_sem_nome_202" x1="47.15" y1="267.76" x2="191.72" y2="17.35" gradientUnits="userSpaceOnUse"><stop offset="0.15" stop-color="#0086ab"/><stop offset="0.35" stop-color="#004967"/><stop offset="0.95" stop-color="#0081ab"/></linearGradient></defs><title>Logo S</title><text transform="translate(3.61 327.07) scale(0.84 1)" style="font-size:391.979248046875px;fill:#0085af;font-family:FranklinGothic-Heavy, Franklin Gothic Heavy;font-weight:800">S</text><text transform="translate(3.61 327.07) scale(0.84 1)" style="font-size:391.979248046875px;fill:#ea712a;font-family:FranklinGothic-Heavy, Franklin Gothic Heavy;font-weight:800">S</text><g style="clip-path:url(#clip-path)"><text transform="translate(4.39 326.71) scale(0.84 1)" style="font-size:391.979248046875px;fill:#0085af;font-family:FranklinGothic-Heavy, Franklin Gothic Heavy;font-weight:800">S</text></g><g style="clip-path:url(#clip-path)"><path d="M23.31,212.85l62.4-13.39Q93.57,231,126.14,231q25.35,0,25.35-16.08,0-8.42-5.86-13.11t-20.94-8.32q-57.6-13.17-73.95-34.42t-16.36-50q0-36.94,23.5-61.45T125.5,23.18q66.88,0,88.39,64.12l-55.67,20.1q-8.66-26.22-35.13-26.23-22,0-22,16.27,0,7.28,5,11.3t19.25,7.64q39.32,9.91,55.84,17.54T208.76,160q11.07,18.48,11.07,43.57,0,39.64-27,64.26t-70.74,24.61Q42.08,292.48,23.31,212.85Z" transform="translate(-22.45 38.26)" style="fill:url(#Gradiente_sem_nome_202)"/><path d="M23.31,212.85l62.4-13.39Q93.57,231,126.14,231q25.35,0,25.35-16.08,0-8.42-5.86-13.11t-20.94-8.32q-57.6-13.17-73.95-34.42t-16.36-50q0-36.94,23.5-61.45T125.5,23.18q66.88,0,88.39,64.12l-55.67,20.1q-8.66-26.22-35.13-26.23-22,0-22,16.27,0,7.28,5,11.3t19.25,7.64q39.32,9.91,55.84,17.54T208.76,160q11.07,18.48,11.07,43.57,0,39.64-27,64.26t-70.74,24.61Q42.08,292.48,23.31,212.85Z" transform="translate(-22.45 38.26)" style="fill:url(#Gradiente_sem_nome_202)"/><path d="M23.31,212.85l62.4-13.39Q93.57,231,126.14,231q25.35,0,25.35-16.08,0-8.42-5.86-13.11t-20.94-8.32q-57.6-13.17-73.95-34.42t-16.36-50q0-36.94,23.5-61.45T125.5,23.18q66.88,0,88.39,64.12l-55.67,20.1q-8.66-26.22-35.13-26.23-22,0-22,16.27,0,7.28,5,11.3t19.25,7.64q39.32,9.91,55.84,17.54T208.76,160q11.07,18.48,11.07,43.57,0,39.64-27,64.26t-70.74,24.61Q42.08,292.48,23.31,212.85Z" transform="translate(-22.45 38.26)" style="fill:url(#Gradiente_sem_nome_202)"/></g></svg>